<svg width="138" height="15" viewBox="0 0 138 15" fill="none" xmlns="http://www.w3.org/2000/svg">
<path d="M78.5756 11.4102C78.5756 11.8359 78.492 12.2616 78.4084 12.6873C78.2412 13.113 77.9904 13.4536 77.6561 13.7942C77.2382 14.1347 76.7367 14.3902 76.068 14.5605C75.3993 14.7307 74.4798 14.8159 73.3096 14.8159C72.3066 14.8159 71.4708 14.7307 70.8021 14.4753C70.1334 14.305 69.5483 13.9645 69.1303 13.6239C68.7124 13.2833 68.3781 12.8576 68.2109 12.4319C68.0437 12.0062 67.8766 11.4953 67.8766 11.0696H69.6319C69.6319 11.5804 69.799 11.921 70.0498 12.1764C70.3005 12.4319 70.6349 12.6873 70.9692 12.7725C71.3872 12.9427 71.8051 13.0279 72.223 13.0279C72.7245 13.0279 73.1425 13.113 73.644 13.113C74.7306 13.113 75.4829 12.9427 75.9844 12.6873C76.4859 12.3467 76.7367 12.0062 76.7367 11.4953C76.7367 11.1547 76.6531 10.8993 76.4023 10.729C76.1516 10.5587 75.9008 10.3884 75.4829 10.2181C75.1485 10.133 74.647 10.0479 74.2291 9.96272C73.7276 9.87757 73.2261 9.79243 72.7245 9.79243C72.0559 9.70729 71.4707 9.62214 70.8856 9.537C70.3005 9.45186 69.799 9.28157 69.3811 9.11128C68.9632 8.94099 68.6288 8.68557 68.3781 8.345C68.1273 8.00442 67.9601 7.57871 67.9601 7.06785C67.9601 6.64213 68.0437 6.21641 68.2109 5.79069C68.3781 5.36498 68.6288 5.0244 69.0468 4.68383C69.4647 4.34325 69.9662 4.08782 70.7185 3.91753C71.3872 3.74724 72.3066 3.66211 73.4768 3.66211C74.4798 3.66211 75.3157 3.74725 75.9844 4.00268C76.6531 4.25811 77.1546 4.51354 77.4889 4.85411C77.8233 5.19469 78.074 5.6204 78.2412 6.04611C78.4084 6.47183 78.492 6.89755 78.492 7.40841H76.7367C76.6531 6.9827 76.5695 6.55698 76.4023 6.30155C76.2351 6.04612 75.9844 5.79069 75.65 5.70555C75.3157 5.53526 74.9814 5.45011 74.5634 5.45011C74.1455 5.36497 73.644 5.36498 73.1425 5.36498C71.9723 5.36498 71.1364 5.53526 70.6349 5.79069C70.1334 6.04612 69.8826 6.47184 69.8826 6.9827C69.8826 7.23813 69.9662 7.49356 70.217 7.66385C70.4677 7.83413 70.8021 7.91928 71.1364 8.08956C71.5543 8.17471 71.9723 8.25985 72.3902 8.345C72.8917 8.43014 73.3096 8.43014 73.7276 8.51528C74.3963 8.60042 74.9814 8.68557 75.65 8.77071C76.2352 8.85586 76.7367 9.02614 77.1546 9.28157C77.5725 9.537 77.9069 9.79243 78.1576 10.133C78.4084 10.3884 78.5756 10.8141 78.5756 11.4102Z" fill="white"/>
<path d="M85.8478 14.388C84.9284 14.388 84.1761 14.3028 83.6746 14.1325C83.1731 13.9622 82.7551 13.7068 82.5044 13.196C82.2536 12.7702 82.0864 12.1742 82.0029 11.4079C81.9193 10.6417 81.9193 9.70508 81.9193 8.51307V5.78848H80.164V4.17075H82.0029V1.95703H83.7582L83.4238 4.17075H86.6837V5.78848H83.6746V8.51307C83.6746 9.53479 83.6746 10.3011 83.7582 10.8971C83.7582 11.4931 83.8418 11.9188 84.0089 12.1742C84.1761 12.4297 84.3433 12.5999 84.6776 12.6851C85.012 12.7702 85.3463 12.7702 85.9314 12.7702L85.8478 14.388Z" fill="white"/>
<path d="M97.5503 13.194C97.0487 13.79 96.38 14.2157 95.5442 14.5563C94.7919 14.8117 93.8725 14.982 92.8694 14.982C92.1172 14.982 91.5321 14.8968 90.8634 14.7265C90.2783 14.5563 89.7768 14.2157 89.3588 13.8751C88.9409 13.4494 88.6066 13.0237 88.3558 12.4277C88.105 11.8317 88.0215 11.1505 88.0215 10.3842V4.25391H89.7768V9.78823C89.7768 10.1288 89.7768 10.4694 89.8604 10.8951C89.8604 11.3208 90.0275 11.6614 90.1947 12.0871C90.3619 12.4277 90.6962 12.7682 91.1141 13.0237C91.5321 13.2791 92.1172 13.3642 92.953 13.3642C93.6217 13.3642 94.1232 13.2791 94.7083 13.194C95.2098 13.0237 95.7114 12.8534 96.0457 12.5128C96.4636 12.1722 96.7144 11.7465 96.9652 11.1505C97.2159 10.5545 97.2995 9.78823 97.2995 8.93679V4.33904H99.0548V14.5563H97.2995L97.5503 13.194Z" fill="white"/>
<path d="M111.843 13.1099C111.341 13.7059 110.673 14.1316 109.837 14.4722C109.001 14.8128 108.165 14.983 107.162 14.983C106.243 14.983 105.407 14.8979 104.738 14.6425C103.986 14.387 103.401 14.1316 102.899 13.6208C102.398 13.195 101.98 12.599 101.729 11.9179C101.478 11.2367 101.311 10.3853 101.311 9.44872C101.311 8.51214 101.478 7.66072 101.729 6.97957C101.98 6.29842 102.398 5.70241 102.899 5.19155C103.401 4.76584 104.069 4.42526 104.822 4.16983C105.574 3.9144 106.41 3.82927 107.413 3.82927C109.335 3.82927 110.84 4.34013 111.843 5.36185V1.01953H113.598V14.4722H111.843V13.1099ZM102.983 9.36359C102.983 10.7259 103.401 11.7476 104.069 12.3436C104.822 12.9396 105.825 13.195 107.162 13.195C107.831 13.195 108.416 13.1099 109.001 13.0248C109.586 12.9396 110.004 12.6842 110.422 12.3436C110.84 12.003 111.091 11.6624 111.341 11.1516C111.509 10.6407 111.676 10.0447 111.676 9.36359C111.676 7.91615 111.258 6.97957 110.589 6.38357C109.837 5.78756 108.75 5.44699 107.329 5.44699C105.908 5.44699 104.822 5.78756 104.153 6.38357C103.401 6.97957 103.066 8.00129 102.983 9.36359Z" fill="white"/>
<path d="M124.967 12.8566V14.4744H115.02V12.8566H120.119V5.78975H116.525V4.17202H121.874V12.8566H124.967ZM121.791 0V2.21372H119.45V0H121.791Z" fill="white"/>
<path d="M138.007 9.36672C138.007 10.3033 137.84 11.1547 137.506 11.8359C137.172 12.517 136.754 13.113 136.252 13.5387C135.751 13.9645 135.082 14.305 134.33 14.5605C133.577 14.8159 132.741 14.901 131.906 14.901C130.986 14.901 130.15 14.8159 129.482 14.5605C128.729 14.305 128.144 13.9645 127.559 13.5387C127.058 13.113 126.64 12.517 126.305 11.7507C126.055 11.0696 125.887 10.2181 125.887 9.28157C125.887 8.34499 126.055 7.49356 126.305 6.81241C126.556 6.13127 126.974 5.53526 127.559 5.0244C128.061 4.51354 128.729 4.17296 129.482 4.00268C130.234 3.74725 131.07 3.66211 131.906 3.66211C132.825 3.66211 133.661 3.74725 134.413 4.00268C135.165 4.25811 135.834 4.59868 136.336 5.0244C136.837 5.53526 137.255 6.04612 137.589 6.81241C137.84 7.49356 138.007 8.34499 138.007 9.36672ZM127.643 9.28157C127.643 10.6439 128.061 11.6656 128.729 12.3467C129.482 13.0279 130.485 13.2833 131.822 13.2833C133.159 13.2833 134.162 12.9427 134.915 12.3467C135.667 11.6656 136.001 10.6439 136.085 9.28157C136.085 7.91927 135.667 6.89756 134.915 6.21641C134.162 5.53526 133.076 5.27983 131.738 5.27983C130.401 5.27983 129.398 5.62041 128.646 6.21641C128.061 6.81242 127.726 7.83413 127.643 9.28157Z" fill="white"/>
<path d="M1.83889 12.2616V14.4753H0V1.02265H1.83889V9.96271L12.5379 0.9375H15.2962L9.77955 5.53525L15.3798 14.3902H13.2066L8.35859 6.72725L1.83889 12.2616Z" fill="white"/>
<path d="M20.1443 10.3853L18.1383 14.4722H16.0486L22.5683 1.01953H25.7446L32.2643 14.4722H30.1746L28.1686 10.3853H20.1443ZM20.9802 8.68244H27.4163L24.24 2.04125L20.9802 8.68244Z" fill="white"/>
<path d="M35.6922 2.21153V14.4722H33.7697V1.01953H37.0295L45.6389 13.2802V1.01953H47.4778V14.4722H44.2179L35.6922 2.21153Z" fill="white"/>
<path d="M56.9222 2.64037V14.3902H55.0833V2.64037H49.2323V0.9375H62.8568V2.64037H56.9222Z" fill="white"/>
<path d="M65.1155 12.2578H62.7751V14.4715H65.1155V12.2578Z" fill="white"/>
</svg>
