<svg width="147" height="135" viewBox="0 0 147 135" fill="none" xmlns="http://www.w3.org/2000/svg">
<path d="M51.2772 90.5852C51.2772 90.5852 42.5182 78.8999 41.528 77.8706C40.5378 76.8412 33.7972 66.7572 31.2647 62.0869C28.7321 57.4166 24.1622 47.4089 22.0867 40.8133C20.0112 34.2177 19.0781 26.4974 19.0781 23.5236C19.0781 20.5499 19.3828 11.8956 20.5824 7.58748C21.782 3.27937 22.3152 2.25 22.3152 2.25L23.3815 13.6493L25.2476 27.8699L28.9226 37.8395L37.5864 52.4795L46.7644 63.5357L56.247 77.8134L62.683 87.0968L62.7211 91.3286C62.7211 91.3286 53.9049 90.1087 51.2772 90.5661V90.5852Z" fill="#17428B"/>
<path d="M22.3164 2.26953C22.3164 2.26953 23.0209 22.6282 25.2488 29.9482C27.4766 37.2681 31.7419 45.5793 33.7794 48.5912C35.8168 51.6031 46.023 66.0333 47.2417 67.5011C48.4603 68.9689 59.333 84.4857 60.247 86.2204C61.161 87.9551 63.0461 91.3482 62.7414 91.3482C62.4367 91.3482 72.4906 94.7032 74.033 95.9232L76.2799 95.4085L74.3186 76.8036L60.8944 57.8555L44.8615 47.0471L31.0755 29.8338L24.6775 11.0001L22.3354 2.26953H22.3164Z" fill="#004A99"/>
<path d="M22.3164 2.26953C22.3164 2.26953 25.1345 18.0341 27.2481 24.401C28.8476 29.2238 33.8555 38.0306 36.9783 41.3856C40.6343 45.3315 47.8129 51.9843 50.5739 53.8143C55.1629 56.8262 62.2273 61.4011 67.1781 67.9014C72.1098 74.4017 74.6994 80.8067 74.6423 86.6207C74.5852 92.4347 74.052 95.9232 74.052 95.9232C74.052 95.9232 81.2878 99.545 86.4099 104.577H89.8945L96.3305 82.6938L87.8 63.1167L78.6791 54.1384L64.9883 41.3475L49.5838 30.4819L36.4261 19.197L25.6867 6.67295L22.3735 2.26953H22.3164Z" fill="#1355A2"/>
<path d="M22.3164 2.26953L43.6047 16.166C43.6047 16.166 56.7624 24.9157 62.3034 28.7091C63.922 29.8147 85.0199 45.2743 86.905 46.7231C88.7901 48.1718 101.7 56.8452 106.975 69.0452C111.659 79.8726 111.354 88.8701 107.832 97.2003C104.842 104.253 97.5492 112.279 95.4927 113.48L86.4099 104.577C86.4099 104.577 91.475 99.6022 91.3797 91.6151C91.2845 83.6279 91.6463 77.1086 82.2018 62.7736C74.1853 50.5927 61.8274 42.2625 58.3047 40.0322C57.4669 39.4984 56.6672 38.9456 55.8865 38.3737C51.4689 35.1141 38.2541 25.2779 34.7124 21.1604C30.4281 16.1851 23.3446 5.81514 22.3354 2.28859L22.3164 2.26953Z" fill="#1E5EA9"/>
<path d="M77.4453 35.8372C77.4453 35.8372 82.7579 28.0216 88.318 25.105C93.8781 22.1885 99.7238 20.5682 105.608 21.0829C111.491 21.5975 119.832 24.9144 119.832 24.9144L99.4572 26.0582L92.6975 31.2813L85.8236 41.3843L77.4453 35.799V35.8372Z" fill="#F3F3F3"/>
<path d="M84.8438 41.252C84.8438 41.252 89.6231 31.4158 93.6219 28.3087C97.6206 25.2205 101.638 23.8862 109.141 23.6002C116.662 23.3143 119.823 24.9346 119.823 24.9346L125.116 27.9846L107.046 26.898L97.6967 32.8074L94.4026 41.252L92.3651 47.1233L84.8438 41.252Z" fill="#F8F7F7"/>
<path d="M92.3706 47.124C92.3706 47.124 93.8368 38.279 94.7127 36.43C95.5886 34.5809 99.0732 27.3753 104.576 26.4984C110.079 25.6216 112.916 26.3841 115.754 26.4984C118.591 26.6128 125.122 27.9853 125.122 27.9853L109.813 29.11L103.757 34.8859L101.682 45.4655L100.14 53.6814L92.3516 47.1049L92.3706 47.124Z" fill="#FDFCFD"/>
<path d="M100.163 53.7006C100.163 53.7006 100.334 43.5022 100.563 41.5578C100.791 39.6135 101.972 33.6851 105.514 30.8257C108.675 28.2713 110.655 27.852 115.377 27.5279C120.099 27.2039 125.107 27.9854 125.107 27.9854C125.107 27.9854 116.501 29.4723 113.111 31.9504C109.722 34.4285 107.113 39.48 106.751 41.5578C106.39 43.6356 106.352 50.3647 106.923 52.8428C107.494 55.3209 109.665 62.069 109.95 63.9943C110.312 66.4534 110.979 70.5899 110.979 70.5899L107.246 63.4034L102.334 56.0072L100.125 53.7006H100.163Z" fill="white"/>
<path d="M112.515 76.061L110.496 71.181C110.496 71.181 108.764 66.9872 106.65 63.8038C104.517 60.6013 100.69 55.5498 98.3669 53.1479C94.6348 49.2973 87.2467 43.9599 84.0858 41.6914C83.5717 41.3292 83.1718 41.0433 82.9243 40.8527C82.7719 40.7383 78.5447 37.8027 76.9262 36.678L76.3359 36.2586L76.7358 35.6677C76.9072 35.4008 81.0963 29.1102 86.5422 25.2978C91.6833 21.6759 94.6348 20.8371 100.366 20.2653C104.574 19.8459 113.962 20.6275 121.255 24.5543C125.101 26.6321 126.11 27.4137 126.148 27.4327L127.919 28.8052L125.672 28.729C125.672 28.729 118.018 28.5574 113.486 32.8083C110.268 35.8202 109.106 37.7836 108.249 39.9567C108.021 40.5096 107.869 41.1005 107.754 41.6914C107.621 42.3586 107.583 42.6827 107.583 42.8352C107.183 47.4673 107.621 52.0995 108.878 56.6364C109.468 58.7332 110.135 61.6116 110.82 64.9857C111.829 69.961 111.924 70.7616 111.943 70.7997L112.553 76.0419L112.515 76.061ZM78.3734 35.8965C80.0109 37.0402 83.705 39.5946 83.8002 39.6708C84.0477 39.8614 84.4476 40.1474 84.9427 40.5096C88.1416 42.8161 95.6059 48.1917 99.4142 52.1376C101.794 54.5967 105.698 59.7435 107.869 63.0032C108.421 63.8229 108.935 64.6998 109.392 65.5385C109.392 65.4623 109.354 65.386 109.354 65.3097C108.668 61.9738 108.021 59.1335 107.431 57.0748C106.117 52.3664 105.66 47.5436 106.079 42.7399C106.098 42.473 106.174 42.0536 106.288 41.4627C106.421 40.7955 106.612 40.1283 106.859 39.4802C107.945 36.7161 109.506 34.5621 112.458 31.798C115.809 28.6527 120.493 27.6996 123.292 27.4327C122.607 27.0324 121.712 26.5177 120.531 25.8887C113.543 22.1143 104.536 21.3518 100.5 21.7521C95.0537 22.305 92.2546 23.1056 87.38 26.5368C83.1147 29.5296 79.5349 34.2571 78.3734 35.9155V35.8965Z" fill="#1E5CA7"/>
<path d="M53.6953 93.8813C53.6953 93.8813 62.0164 106.729 61.8831 114.774C61.7498 122.818 60.8168 128.194 58.6842 132.75C58.6842 132.75 68.5476 129.242 71.4991 128.003C74.4505 126.764 85.7611 121.217 89.6265 118.3C92.6922 116.013 93.2254 115.727 93.2254 115.727C93.2254 115.727 86.0087 107.263 79.7059 103.374C79.7059 103.374 69.0427 96.1497 62.6638 94.9297C56.4373 93.7288 53.6953 93.8813 53.6953 93.8813Z" fill="#AB1A18"/>
<path d="M64.6094 95.4453C64.6094 95.4453 66.3802 109.266 65.1997 116.052C63.9429 123.238 61.4104 130.253 58.6875 132.75L63.4288 131.054L69.6554 128.747C69.6554 128.747 72.8924 127.337 75.2536 126.269C77.8432 125.087 83.6128 121.98 83.6128 121.98C83.6128 121.98 89.2871 118.835 93.2287 115.747C93.2287 115.747 81.6134 100.878 64.6094 95.4453Z" fill="#CC171A"/>
<path d="M58.6875 132.733C58.6875 132.733 62.6481 129.626 64.0572 127.663C65.4663 125.699 70.4551 116.359 71.3691 112.279C72.2831 108.2 73.4637 100.804 73.5589 99.7172V99.3359C73.5589 99.3359 78.0146 101.871 80.4709 103.739C82.9273 105.607 89.9155 111.078 93.2287 115.73C93.2287 115.73 85.7454 124.155 58.6875 132.733Z" fill="#E41819"/>
<path d="M85.0599 107.437C85.0599 107.437 70.6075 122.763 66.6278 126.366C62.6481 129.969 58.6875 132.733 58.6875 132.733C58.6875 132.733 65.0473 130.598 65.9994 130.255C65.9994 130.255 73.7112 127.758 79.1951 124.936C82.9082 123.03 89.5156 119.713 93.2477 115.71C93.2477 115.71 91.4388 112.622 85.079 107.418L85.0599 107.437Z" fill="#E52A2B"/>
</svg>
